# xmcd
#
# Track frame offsets: 
#        150
#        19600
#        32377
#        49955
#        66775
#        83430
#        101210
#        115065
#        133087
#        151685
#
# Disc length: 2308 seconds
#
# Revision: 2
# Processed by: cddbd v1.5.2PL0 Copyright (c) Steve Scherf et al.
# Submitted via: ExactAudioCopy v1.0b1
#
DISCID=7209020a
DTITLE=Memphis Slim - Alone With My Friends
DYEAR=1961
DGENRE=Blues
TTITLE0=Highway 51 Blues
TTITLE1=I Feel So Good
TTITLE2=Rock Me, Momma
TTITLE3=Goin' down slow
TTITLE4=Sittin' on top of the World
TTITLE5=Sunnyland Train
TTITLE6=Goin' Down to the River
TTITLE7=I just want to make Love to You
TTITLE8=I can hear my Name A-Ringin'
TTITLE9=Going back to my Plow
EXTD=
EXTT0=
EXTT1=
EXTT2=
EXTT3=
EXTT4=
EXTT5=
EXTT6=
EXTT7=
EXTT8=
EXTT9=
PLAYORDER=
